<mxfile>
    <diagram id="AE1ngAnAXEDSi_8ZjTDB" name="Page-1">
        <mxGraphModel dx="1118" dy="534" grid="1" gridSize="10" guides="1" tooltips="1" connect="1" arrows="1" fold="1" page="1" pageScale="1" pageWidth="850" pageHeight="1100" math="0" shadow="0">
            <root>
                <mxCell id="0"/>
                <mxCell id="1" parent="0"/>
                <mxCell id="Z9LsmCkJ0kFips3NRMrU-2" value="&lt;font color=&quot;#000000&quot;&gt;Math Quiz&lt;/font&gt;" style="strokeWidth=1;shadow=0;dashed=0;align=center;html=1;shape=mxgraph.mockup.containers.window;align=left;verticalAlign=top;spacingLeft=8;strokeColor2=#008cff;strokeColor3=#c4c4c4;fontColor=#666666;mainText=;fontSize=17;labelBackgroundColor=none;fillColor=#FFFFFF;" parent="1" vertex="1">
                    <mxGeometry x="10" y="10" width="280" height="440" as="geometry"/>
                </mxCell>
                <mxCell id="gPzSePkmkKfz23q-vdxE-26" value="" style="rounded=0;whiteSpace=wrap;html=1;fillColor=#999999;" parent="1" vertex="1">
                    <mxGeometry x="20" y="106" width="100" height="30" as="geometry"/>
                </mxCell>
                <mxCell id="gPzSePkmkKfz23q-vdxE-27" value="" style="rounded=0;whiteSpace=wrap;html=1;fillColor=#999999;" parent="1" vertex="1">
                    <mxGeometry x="180" y="106" width="100" height="30" as="geometry"/>
                </mxCell>
                <mxCell id="gPzSePkmkKfz23q-vdxE-32" value="&lt;span style=&quot;font-size: 24px&quot;&gt;&lt;font color=&quot;#000000&quot;&gt;Math Quiz&lt;/font&gt;&lt;/span&gt;" style="text;html=1;strokeColor=none;fillColor=none;align=center;verticalAlign=middle;whiteSpace=wrap;rounded=0;" parent="1" vertex="1">
                    <mxGeometry x="20" y="40" width="260" height="50" as="geometry"/>
                </mxCell>
                <mxCell id="gPzSePkmkKfz23q-vdxE-34" value="&lt;font style=&quot;font-size: 14px&quot; color=&quot;#000000&quot;&gt;Quit&lt;/font&gt;" style="text;html=1;strokeColor=none;fillColor=#999999;align=center;verticalAlign=middle;whiteSpace=wrap;rounded=0;" parent="1" vertex="1">
                    <mxGeometry x="160" y="390" width="120" height="50" as="geometry"/>
                </mxCell>
                <mxCell id="gPzSePkmkKfz23q-vdxE-36" value="&lt;font style=&quot;font-size: 14px&quot; color=&quot;#000000&quot;&gt;Help/Information&lt;/font&gt;" style="text;html=1;strokeColor=none;fillColor=#999999;align=center;verticalAlign=middle;whiteSpace=wrap;rounded=0;" parent="1" vertex="1">
                    <mxGeometry x="20" y="390" width="120" height="50" as="geometry"/>
                </mxCell>
                <mxCell id="Z9LsmCkJ0kFips3NRMrU-1" value="&lt;font color=&quot;#000000&quot;&gt;Minimum&lt;/font&gt;" style="text;html=1;strokeColor=none;fillColor=none;align=center;verticalAlign=middle;whiteSpace=wrap;rounded=0;" parent="1" vertex="1">
                    <mxGeometry x="20" y="86" width="100" height="20" as="geometry"/>
                </mxCell>
                <mxCell id="Z9LsmCkJ0kFips3NRMrU-3" value="&lt;font color=&quot;#000000&quot;&gt;Maximum&lt;/font&gt;" style="text;html=1;strokeColor=none;fillColor=none;align=center;verticalAlign=middle;whiteSpace=wrap;rounded=0;" parent="1" vertex="1">
                    <mxGeometry x="180" y="86" width="100" height="20" as="geometry"/>
                </mxCell>
                <mxCell id="Z9LsmCkJ0kFips3NRMrU-4" value="&lt;font color=&quot;#000000&quot;&gt;To&lt;/font&gt;" style="text;html=1;strokeColor=none;fillColor=none;align=center;verticalAlign=middle;whiteSpace=wrap;rounded=0;" parent="1" vertex="1">
                    <mxGeometry x="120" y="111" width="60" height="20" as="geometry"/>
                </mxCell>
                <mxCell id="gPzSePkmkKfz23q-vdxE-17" value="&lt;font color=&quot;#000000&quot;&gt;Addition&amp;nbsp;&lt;/font&gt;" style="rounded=0;whiteSpace=wrap;html=1;fillColor=#ffcccc;strokeColor=#36393d;" parent="1" vertex="1">
                    <mxGeometry x="92.5" y="150" width="115" height="50" as="geometry"/>
                </mxCell>
                <mxCell id="gPzSePkmkKfz23q-vdxE-18" value="&lt;font color=&quot;#000000&quot;&gt;Division&lt;/font&gt;" style="rounded=0;whiteSpace=wrap;html=1;fillColor=#cdeb8b;strokeColor=#36393d;" parent="1" vertex="1">
                    <mxGeometry x="92.5" y="330" width="115" height="50" as="geometry"/>
                </mxCell>
                <mxCell id="gPzSePkmkKfz23q-vdxE-51" value="&lt;font color=&quot;#000000&quot;&gt;Multiplication&lt;/font&gt;" style="rounded=0;whiteSpace=wrap;html=1;fillColor=#ffff88;strokeColor=#36393d;" parent="1" vertex="1">
                    <mxGeometry x="92.5" y="270" width="115" height="50" as="geometry"/>
                </mxCell>
                <mxCell id="Z9LsmCkJ0kFips3NRMrU-6" value="&lt;font color=&quot;#000000&quot;&gt;&lt;br&gt;Help Text Goes Here&lt;/font&gt;" style="strokeWidth=1;shadow=0;dashed=0;align=center;html=1;shape=mxgraph.mockup.containers.rrect;rSize=0;strokeColor=#666666;fontColor=#666666;fontSize=17;verticalAlign=top;whiteSpace=wrap;fillColor=#ffffff;spacingTop=32;" parent="1" vertex="1">
                    <mxGeometry x="580" y="301" width="250" height="160" as="geometry"/>
                </mxCell>
                <mxCell id="Z9LsmCkJ0kFips3NRMrU-7" value="&lt;font color=&quot;#000000&quot;&gt;Help and Information&lt;/font&gt;" style="strokeWidth=1;shadow=0;dashed=0;align=center;html=1;shape=mxgraph.mockup.containers.rrect;rSize=0;fontSize=17;fontColor=#666666;strokeColor=#666666;align=left;spacingLeft=8;fillColor=#ffffff;resizeWidth=1;" parent="Z9LsmCkJ0kFips3NRMrU-6" vertex="1">
                    <mxGeometry width="250" height="30" relative="1" as="geometry"/>
                </mxCell>
                <mxCell id="Z9LsmCkJ0kFips3NRMrU-8" value="" style="shape=ellipse;strokeColor=#008cff;resizable=0;fillColor=none;html=1;" parent="Z9LsmCkJ0kFips3NRMrU-7" vertex="1">
                    <mxGeometry x="1" y="0.5" width="20" height="20" relative="1" as="geometry">
                        <mxPoint x="-25" y="-10" as="offset"/>
                    </mxGeometry>
                </mxCell>
                <mxCell id="Z9LsmCkJ0kFips3NRMrU-9" value="&lt;font color=&quot;#000000&quot;&gt;OK&lt;/font&gt;" style="strokeWidth=1;shadow=0;dashed=0;align=center;html=1;shape=mxgraph.mockup.containers.rrect;rSize=0;fontSize=16;fontColor=#666666;strokeColor=#c4c4c4;resizable=0;whiteSpace=wrap;fillColor=#999999;" parent="Z9LsmCkJ0kFips3NRMrU-6" vertex="1">
                    <mxGeometry x="0.5" y="1" width="120" height="25" relative="1" as="geometry">
                        <mxPoint x="-60" y="-33" as="offset"/>
                    </mxGeometry>
                </mxCell>
                <mxCell id="Z9LsmCkJ0kFips3NRMrU-10" value="&lt;font color=&quot;#000000&quot;&gt;Math Quiz&lt;/font&gt;" style="strokeWidth=1;shadow=0;dashed=0;align=center;html=1;shape=mxgraph.mockup.containers.window;align=left;verticalAlign=top;spacingLeft=8;strokeColor2=#008cff;strokeColor3=#c4c4c4;fontColor=#666666;mainText=;fontSize=17;labelBackgroundColor=none;strokeColor=#FFFFFF;fillColor=#FFFFFF;" parent="1" vertex="1">
                    <mxGeometry x="300" y="10" width="420" height="280" as="geometry"/>
                </mxCell>
                <mxCell id="Z9LsmCkJ0kFips3NRMrU-12" value="" style="rounded=0;whiteSpace=wrap;html=1;" parent="1" vertex="1">
                    <mxGeometry x="510" y="220" width="120" height="60" as="geometry"/>
                </mxCell>
                <mxCell id="Z9LsmCkJ0kFips3NRMrU-13" value="&lt;font color=&quot;#000000&quot;&gt;Next&lt;/font&gt;" style="text;html=1;strokeColor=none;fillColor=#999999;align=center;verticalAlign=middle;whiteSpace=wrap;rounded=0;" parent="1" vertex="1">
                    <mxGeometry x="510" y="220" width="120" height="60" as="geometry"/>
                </mxCell>
                <mxCell id="Z9LsmCkJ0kFips3NRMrU-14" value="" style="rounded=0;whiteSpace=wrap;html=1;" parent="1" vertex="1">
                    <mxGeometry x="440" y="160" width="140" height="30" as="geometry"/>
                </mxCell>
                <mxCell id="Z9LsmCkJ0kFips3NRMrU-15" value="&lt;font color=&quot;#000000&quot;&gt;Answer Here:&lt;/font&gt;" style="text;html=1;strokeColor=none;fillColor=#999999;align=center;verticalAlign=middle;whiteSpace=wrap;rounded=0;" parent="1" vertex="1">
                    <mxGeometry x="440" y="160" width="140" height="30" as="geometry"/>
                </mxCell>
                <mxCell id="Z9LsmCkJ0kFips3NRMrU-16" value="&lt;font color=&quot;#000000&quot;&gt;Question (Addition, Multiplication or Division based question)&lt;/font&gt;" style="rounded=0;whiteSpace=wrap;html=1;fillColor=#999999;" parent="1" vertex="1">
                    <mxGeometry x="310" y="70" width="400" height="74" as="geometry"/>
                </mxCell>
                <mxCell id="Z9LsmCkJ0kFips3NRMrU-17" value="" style="rounded=0;whiteSpace=wrap;html=1;" parent="1" vertex="1">
                    <mxGeometry x="380" y="220" width="120" height="60" as="geometry"/>
                </mxCell>
                <mxCell id="Z9LsmCkJ0kFips3NRMrU-18" value="&lt;font color=&quot;#000000&quot;&gt;Quit&lt;/font&gt;" style="text;html=1;strokeColor=none;fillColor=#999999;align=center;verticalAlign=middle;whiteSpace=wrap;rounded=0;" parent="1" vertex="1">
                    <mxGeometry x="380" y="220" width="120" height="60" as="geometry"/>
                </mxCell>
                <mxCell id="Z9LsmCkJ0kFips3NRMrU-20" value="&lt;font color=&quot;#000000&quot;&gt;1 Out of 10&lt;/font&gt;" style="text;html=1;strokeColor=none;fillColor=none;align=center;verticalAlign=middle;whiteSpace=wrap;rounded=0;" parent="1" vertex="1">
                    <mxGeometry x="420" y="46" width="180" height="20" as="geometry"/>
                </mxCell>
                <mxCell id="Z9LsmCkJ0kFips3NRMrU-22" value="&lt;font color=&quot;#000000&quot;&gt;Congrats! You got (number of question answered right) correct.&lt;br&gt;&lt;/font&gt;&lt;br&gt;&lt;font color=&quot;#000000&quot;&gt;You got (amount incorrect) wrong.&lt;/font&gt;" style="strokeWidth=1;shadow=0;dashed=0;align=center;html=1;shape=mxgraph.mockup.containers.rrect;rSize=0;strokeColor=#666666;fontColor=#666666;fontSize=17;verticalAlign=top;whiteSpace=wrap;fillColor=#ffffff;spacingTop=32;" parent="1" vertex="1">
                    <mxGeometry x="300" y="301" width="270" height="220" as="geometry"/>
                </mxCell>
                <mxCell id="Z9LsmCkJ0kFips3NRMrU-23" value="&lt;font color=&quot;#000000&quot;&gt;Math Quiz&lt;/font&gt;" style="strokeWidth=1;shadow=0;dashed=0;align=center;html=1;shape=mxgraph.mockup.containers.rrect;rSize=0;fontSize=17;fontColor=#666666;strokeColor=#666666;align=left;spacingLeft=8;fillColor=#ffffff;resizeWidth=1;" parent="Z9LsmCkJ0kFips3NRMrU-22" vertex="1">
                    <mxGeometry width="270" height="30" relative="1" as="geometry"/>
                </mxCell>
                <mxCell id="Z9LsmCkJ0kFips3NRMrU-24" value="" style="shape=ellipse;strokeColor=#008cff;resizable=0;fillColor=none;html=1;" parent="Z9LsmCkJ0kFips3NRMrU-23" vertex="1">
                    <mxGeometry x="1" y="0.5" width="20" height="20" relative="1" as="geometry">
                        <mxPoint x="-25" y="-10" as="offset"/>
                    </mxGeometry>
                </mxCell>
                <mxCell id="Z9LsmCkJ0kFips3NRMrU-25" value="&lt;font color=&quot;#000000&quot;&gt;Quit&lt;/font&gt;" style="strokeWidth=1;shadow=0;dashed=0;align=center;html=1;shape=mxgraph.mockup.containers.rrect;rSize=0;fontSize=16;fontColor=#666666;strokeColor=#c4c4c4;resizable=0;whiteSpace=wrap;fillColor=#999999;" parent="Z9LsmCkJ0kFips3NRMrU-22" vertex="1">
                    <mxGeometry x="0.5" y="1" width="120" height="25" relative="1" as="geometry">
                        <mxPoint x="-60" y="-33" as="offset"/>
                    </mxGeometry>
                </mxCell>
                <mxCell id="2" value="&lt;font color=&quot;#000000&quot;&gt;Export&lt;/font&gt;" style="strokeWidth=1;shadow=0;dashed=0;align=center;html=1;shape=mxgraph.mockup.containers.rrect;rSize=0;fontSize=16;fontColor=#666666;strokeColor=#c4c4c4;resizable=0;whiteSpace=wrap;fillColor=#999999;" parent="Z9LsmCkJ0kFips3NRMrU-22" vertex="1">
                    <mxGeometry x="75.00000000000001" y="157.14285714285714" width="120" height="25" as="geometry"/>
                </mxCell>
                <mxCell id="3" value="&lt;font color=&quot;#000000&quot;&gt;Subtraction&lt;br&gt;&lt;/font&gt;" style="rounded=0;whiteSpace=wrap;html=1;fillColor=#ffcc99;strokeColor=#36393d;" parent="1" vertex="1">
                    <mxGeometry x="92.5" y="210" width="115" height="50" as="geometry"/>
                </mxCell>
                <mxCell id="4" value="" style="strokeWidth=1;shadow=0;dashed=0;align=center;html=1;shape=mxgraph.mockup.containers.rrect;rSize=0;strokeColor=#666666;fontColor=#666666;fontSize=17;verticalAlign=top;whiteSpace=wrap;fillColor=#ffffff;spacingTop=32;" parent="1" vertex="1">
                    <mxGeometry x="40" y="460" width="250" height="140" as="geometry"/>
                </mxCell>
                <mxCell id="5" value="&lt;font color=&quot;#000000&quot;&gt;Export&lt;/font&gt;" style="strokeWidth=1;shadow=0;dashed=0;align=center;html=1;shape=mxgraph.mockup.containers.rrect;rSize=0;fontSize=17;fontColor=#666666;strokeColor=#666666;align=left;spacingLeft=8;fillColor=none;resizeWidth=1;" parent="4" vertex="1">
                    <mxGeometry width="250" height="30" relative="1" as="geometry"/>
                </mxCell>
                <mxCell id="6" value="" style="shape=ellipse;strokeColor=#008cff;resizable=0;fillColor=none;html=1;" parent="5" vertex="1">
                    <mxGeometry x="1" y="0.5" width="20" height="20" relative="1" as="geometry">
                        <mxPoint x="-25" y="-10" as="offset"/>
                    </mxGeometry>
                </mxCell>
                <mxCell id="7" value="&lt;font color=&quot;#000000&quot;&gt;Cancel&lt;/font&gt;" style="strokeWidth=1;shadow=0;dashed=0;align=center;html=1;shape=mxgraph.mockup.containers.rrect;rSize=0;fontSize=16;fontColor=#666666;strokeColor=#c4c4c4;whiteSpace=wrap;fillColor=#999999;" parent="4" vertex="1">
                    <mxGeometry x="0.25" y="1" width="90" height="25" relative="1" as="geometry">
                        <mxPoint x="-45" y="-33" as="offset"/>
                    </mxGeometry>
                </mxCell>
                <mxCell id="8" value="&lt;font color=&quot;#000000&quot;&gt;Save&lt;/font&gt;" style="strokeWidth=1;shadow=0;dashed=0;align=center;html=1;shape=mxgraph.mockup.containers.rrect;rSize=0;fontSize=16;fontColor=#666666;strokeColor=#c4c4c4;whiteSpace=wrap;fillColor=#999999;" parent="4" vertex="1">
                    <mxGeometry x="0.75" y="1" width="90" height="25" relative="1" as="geometry">
                        <mxPoint x="-45" y="-33" as="offset"/>
                    </mxGeometry>
                </mxCell>
                <mxCell id="12" value="&lt;font color=&quot;#000000&quot;&gt;&lt;span style=&quot;font-size: 14px&quot;&gt;File Name:&lt;/span&gt;&lt;/font&gt;" style="text;html=1;strokeColor=none;fillColor=#999999;align=center;verticalAlign=middle;whiteSpace=wrap;rounded=0;" parent="4" vertex="1">
                    <mxGeometry x="65" y="40" width="120" height="30" as="geometry"/>
                </mxCell>
            </root>
        </mxGraphModel>
    </diagram>
</mxfile>